<?xml version="1.0" encoding="utf-8"?>
<!-- Generator: Adobe Illustrator 18.1.1, SVG Export Plug-In . SVG Version: 6.00 Build 0)  -->
<!DOCTYPE svg PUBLIC "-//W3C//DTD SVG 1.1//EN" "http://www.w3.org/Graphics/SVG/1.1/DTD/svg11.dtd">
<svg version="1.1" id="Layer_1" xmlns="http://www.w3.org/2000/svg" xmlns:xlink="http://www.w3.org/1999/xlink" x="0px" y="0px"
	 width="256.3px" height="256.3px" viewBox="0 0 256.3 256.3" style="enable-background:new 0 0 256.3 256.3;" xml:space="preserve"
	>
<style type="text/css">
	.st0{fill:#4F260F;stroke:#4F260F;stroke-width:3.24;stroke-miterlimit:10;}
</style>
<g>
	<path class="st0" d="M197,113.1c2.3,8.6,3.5,17.7,3.5,27.2c0,1.1,0,2.2-0.1,3.3l11.1,4.3l9.2-7.6l7,8.3L214,160l-14.4-5.8
		c-1.6,12.7-5.5,24.5-11.1,34.8l2-2.7l10.8,6.2l10.3-6.2l5.7,9.2l-15.4,9.3L185,195c-13.2,20.6-33.7,33.8-56.8,33.8
		c-23,0-43.4-13.1-56.7-33.6l-16.7,9.7l-15.4-9.3l5.7-9.2l10.3,6.2l10.8-6.2l0.8,1c-5.1-9.9-8.6-21-10.2-33L42.9,160l-13.8-11.4
		l7-8.3l9.2,7.6l10.7-4.2c0-1.2-0.1-2.3-0.1-3.5c0-9.5,1.2-18.6,3.5-27.2l-18-0.7l-7.8-16l9.9-4.7l5.2,10.7l12.5,0.6l0.2,3.6
		c7.5-22.1,22.1-39.7,40.3-48.6c0.3-6.8,6-12.2,12.9-12.2h30.2c7.2,0,13,5.8,13,12.9c0,0.3-0.1,0.6-0.1,0.9
		c17.2,9.4,30.7,26.8,37.7,48.3l0.3-4.8l12.5-0.6l5.2-10.7l9.9,4.7l-7.8,16L197,113.1z"/>
	<polygon class="st0" points="164.8,34.5 163.4,38.3 161.2,39.2 156.6,40.5 152.7,42.8 147.3,45.8 147.3,42.8 153.4,38.5 
		157.8,37.1 161.8,34.5 164,30 168.4,28.5 167.2,32.7 	"/>
	<polygon class="st0" points="102.9,40.5 98.3,39.2 96.1,38.3 94.7,34.5 92.3,32.7 91,28.5 95.4,30 97.7,34.5 101.6,37.1 
		106.1,38.5 112.2,42.8 112.2,45.8 106.8,42.8 	"/>
</g>
<g>
</g>
<g>
</g>
<g>
</g>
<g>
</g>
<g>
</g>
<g>
</g>
</svg>
