<svg xmlns="http://www.w3.org/2000/svg" width="256.3" height="256.3" viewBox="0 0 256.3 256.3"><style type="text/css">.st0{fill:#4F260F;stroke:#4F260F;stroke-width:3.24;stroke-miterlimit:10;}</style><path class="st0" d="M197 113.1c2.3 8.6 3.5 17.7 3.5 27.2 0 1.1 0 2.2-.1 3.3l11.1 4.3 9.2-7.6 7 8.3-13.7 11.4-14.4-5.8c-1.6 12.7-5.5 24.5-11.1 34.8l2-2.7 10.8 6.2 10.3-6.2 5.7 9.2-15.4 9.3-16.9-9.8c-13.2 20.6-33.7 33.8-56.8 33.8-23 0-43.4-13.1-56.7-33.6l-16.7 9.7-15.4-9.3 5.7-9.2 10.3 6.2 10.8-6.2.8 1c-5.1-9.9-8.6-21-10.2-33l-13.9 5.6-13.8-11.4 7-8.3 9.2 7.6 10.7-4.2-.1-3.5c0-9.5 1.2-18.6 3.5-27.2l-18-.7-7.8-16 9.9-4.7 5.2 10.7 12.5.6.2 3.6c7.5-22.1 22.1-39.7 40.3-48.6.3-6.8 6-12.2 12.9-12.2h30.2c7.2 0 13 5.8 13 12.9l-.1.9c17.2 9.4 30.7 26.8 37.7 48.3l.3-4.8 12.5-.6 5.2-10.7 9.9 4.7-7.8 16-18.5.7zM164.8 34.5l-1.4 3.8-2.2.9-4.6 1.3-3.9 2.3-5.4 3v-3l6.1-4.3 4.4-1.4 4-2.6 2.2-4.5 4.4-1.5-1.2 4.2zM102.9 40.5l-4.6-1.3-2.2-.9-1.4-3.8-2.4-1.8-1.3-4.2 4.4 1.5 2.3 4.5 3.9 2.6 4.5 1.4 6.1 4.3v3l-5.4-3z"/></svg>