<?xml version="1.0" encoding="utf-8"?>
<!-- Generator: Adobe Illustrator 18.1.1, SVG Export Plug-In . SVG Version: 6.00 Build 0)  -->
<!DOCTYPE svg PUBLIC "-//W3C//DTD SVG 1.1//EN" "http://www.w3.org/Graphics/SVG/1.1/DTD/svg11.dtd">
<svg version="1.1" id="Layer_1" xmlns="http://www.w3.org/2000/svg" xmlns:xlink="http://www.w3.org/1999/xlink" x="0px" y="0px"
	 width="252px" height="252px" viewBox="0 0 252 252" style="enable-background:new 0 0 252 252;" xml:space="preserve">
<style type="text/css">
	.st0{fill:#010101;stroke:#010101;stroke-width:3.24;stroke-miterlimit:10;}
</style>
<g>
	<path class="st0" d="M194.8,111c2.3,8.6,3.5,17.7,3.5,27.2c0,1.1,0,2.2-0.1,3.3l11.1,4.3l9.2-7.6l7,8.3l-13.8,11.4l-14.4-5.8
		c-1.6,12.7-5.5,24.5-11.1,34.8l2-2.7l10.8,6.2l10.3-6.2l5.7,9.2l-15.4,9.3l-16.9-9.9c-13.2,20.6-33.7,33.8-56.8,33.8
		c-23,0-43.4-13.1-56.7-33.6l-16.7,9.7l-15.4-9.3l5.7-9.2l10.3,6.2l10.8-6.2l0.8,1c-5.1-9.9-8.6-21-10.2-33l-13.9,5.6L27,146.5
		l7-8.3l9.2,7.6l10.7-4.2c0-1.2-0.1-2.3-0.1-3.5c0-9.5,1.2-18.6,3.5-27.2l-18-0.7l-7.8-16l9.9-4.7l5.2,10.7l12.5,0.6l0.2,3.6
		c7.5-22.1,22.1-39.7,40.3-48.6c0.3-6.8,6-12.2,12.9-12.2h30.2c7.2,0,13,5.8,13,12.9c0,0.3-0.1,0.6-0.1,0.9
		c17.2,9.4,30.7,26.8,37.7,48.3l0.3-4.8l12.5-0.6l5.2-10.7l9.9,4.7l-7.8,16L194.8,111z"/>
	<polygon class="st0" points="162.6,32.3 161.2,36.1 159,37.1 154.4,38.3 150.5,40.7 145.1,43.7 145.1,40.7 151.2,36.3 155.7,35 
		159.6,32.3 161.9,27.8 166.3,26.3 165,30.5 	"/>
	<polygon class="st0" points="100.8,38.3 96.1,37.1 94,36.1 92.5,32.3 90.1,30.5 88.9,26.3 93.3,27.8 95.5,32.3 99.5,35 103.9,36.3 
		110,40.7 110,43.7 104.6,40.7 	"/>
</g>
<g>
</g>
<g>
</g>
<g>
</g>
<g>
</g>
<g>
</g>
<g>
</g>
</svg>
